<svg xmlns="http://www.w3.org/2000/svg" xmlns:xlink="http://www.w3.org/1999/xlink" version="1.1" width="960pt" height="960pt" viewBox="0 0 960 960">
<defs>
<clipPath id="clip_0">
<path transform="matrix(.24,0,0,.24,0,0)" d="M0 0H4000V4031.25H0Z" fill-rule="evenodd"/>
</clipPath>
<clipPath id="clip_1">
<path transform="matrix(.24,0,0,.24,0,0)" d="M0 0H4000V4000H0Z" fill-rule="evenodd"/>
</clipPath>
<clipPath id="clip_2">
<path transform="matrix(.24,0,0,.24,0,0)" d="M0 0H4000V4000H0Z" fill-rule="evenodd"/>
</clipPath>
<path id="font_3_40" d="M.028320313 0V.009994507H.04937744C.06942749 .009994507 .08346049 .014328003 .09147644 .022994996 .09950256 .031661989 .103515628 .052668256 .103515628 .086013797V.62609866C.103515628 .6601054 .09967041 .68160507 .09197998 .69059756 .08429972 .6996002 .07009888 .70410159 .04937744 .70410159H.028320313V.7141113H.43658448L.4415741 .54100039H.4315796L.4295807 .59303286C.4275767 .62305197 .42307536 .6460673 .41607667 .66207888 .40907798 .6780904 .3977407 .6890971 .38206483 .6950989 .36639915 .70110067 .34455873 .70410159 .31654359 .70410159H.19151306V.37890626H.39257813V.36891175H.19052124V.009994507H.34454347C.3725586 .009994507 .3940684 .012827556 .40907289 .018493653 .42407737 .02415975 .4349111 .034159345 .4415741 .04849243 .44824729 .06282552 .45258079 .08331808 .45457459 .10997009L.4585724 .17295838H.46858216L.46258546 0H.028320313Z"/>
<path id="font_3_54" d="M.20704651-.009765625C.16440328-.009765625 .13058472-.0026041668 .10559082 .01171875 .080607097 .02605184 .06278483 .043706258 .052124025 .06468201 .041463216 .08566793 .036132814 .10582479 .036132814 .12515259 .036132814 .14714559 .04179891 .1641388 .053131105 .1761322 .06447347 .18812561 .07914225 .19412232 .09713745 .19412232 .09713745 .13415528 .10662842 .08684794 .12561035 .052200319 .14460247 .017552695 .17674764 .00022888184 .2220459 .00022888184 .25801597 .00022888184 .28582765 .012054443 .30548097 .035705568 .32513429 .059366865 .33496095 .09484863 .33496095 .14215088 .33496095 .17748006 .32929484 .20580037 .31796266 .22711182 .30664063 .24843343 .29048667 .26675416 .26950074 .28207398 .24852498 .29740397 .22271729 .31373088 .19207764 .3310547 .144104 .35837809 .108795169 .3877004 .08615112 .4190216 .06350708 .4503428 .05218506 .48931886 .05218506 .5359497 .05218506 .59458419 .068359378 .6405589 .10070801 .6738739 .13306682 .7071991 .17659505 .7238617 .23129273 .7238617 .26530967 .7238617 .29349265 .7180278 .31584168 .70635989 .3381907 .69470217 .35503135 .67971298 .36636354 .6613922 .3777059 .6430715 .38337709 .6245778 .38337709 .60591128 .38337709 .58858749 .37820945 .5749257 .36787416 .56492617 .35754905 .5549367 .3407186 .549942 .3173828 .549942 .3173828 .65922549 .28501893 .7138672 .22029114 .7138672 .19026184 .7138672 .16556804 .70237228 .14620972 .6793823 .12686157 .6563924 .1171875 .6222432 .1171875 .5769348 .1171875 .544281 .12251282 .5179596 .13316345 .49797059 .14382427 .47798158 .15931194 .46065776 .17962647 .44599916 .19995117 .43134056 .22443645 .41568504 .25308229 .3990326 .28237916 .3816986 .30818687 .36436973 .33050538 .3470459 .35282389 .32972209 .3701426 .30873109 .38246156 .28407289 .39479066 .25942485 .4009552 .22777303 .4009552 .18911743 .4009552 .1278178 .38446046 .0793457 .35147096 .043701173 .3184916 .008056641 .27035014-.009765625 .20704651-.009765625Z"/>
<path id="font_3_55" d="M.11621094 0V.009994507H.1481781C.17084249 .009994507 .1855011 .014826457 .19215393 .024490357 .19881694 .03416443 .20214844 .055338544 .20214844 .088012699V.70410159H.13018799C.090861 .70410159 .06436666 .69710287 .050704957 .68310549 .037043256 .6691081 .02921041 .6427714 .02720642 .60409548L.024215699 .54408267H.014221191L.020217896 .7141113H.47322084L.47921754 .54408267H.46920777L.46621705 .60409548C.46421305 .6427714 .45637513 .6691081 .44270326 .68310549 .42903138 .69710287 .40252687 .70410159 .3631897 .70410159H.29115296V.088012699C.29115296 .055338544 .2943217 .03416443 .30065919 .024490357 .30699668 .014826457 .32150779 .009994507 .3441925 .009994507H.37521363V0H.11621094Z"/>
<path id="font_4_143" d="M.30548097 .0039978029H.33448792V0H.27200318V.020996094C.25931803 .013000488 .24362183 .007502238 .22491455 .004501343 .20621746 .0015004476 .18617757 0 .16479492 0 .12605794 0 .09549967 .007832845 .07312012 .023498536 .05074056 .039164228 .034210206 .065333049 .023529053 .102005008 .020863852 .11266581 .01953125 .12666321 .01953125 .14399719 .01953125 .16133118 .020863852 .17533367 .023529053 .18600464 .034210206 .22333782 .05074056 .24983724 .07312012 .26550294 .09549967 .2811686 .12605794 .28900147 .16479492 .28900147 .18149822 .28900147 .19802857 .2894999 .21438599 .29049684 .23075359 .2915039 .2444458 .2941691 .25546266 .29849244 .26648966 .30282594 .27200318 .31032817 .27200318 .32099916V.3659973C.27200318 .3873291 .26999919 .4079946 .2659912 .42799378 .2619934 .44799296 .25249229 .4644928 .2374878 .4774933 .22249349 .49049378 .19832866 .49699403 .16499329 .49699403 .1343333 .49699403 .10933431 .49032594 .08999634 .47698976 .07066854 .46366374 .058670045 .44700114 .054000856 .42700196 .049331666 .40700279 .05299886 .38666789 .06500244 .3659973 .069000247 .35933433 .07066345 .35283409 .069992069 .34649659 .06933085 .34016929 .066335048 .33633933 .06100464 .3350067 .05299886 .33233134 .04649353 .3361613 .041488649 .34649659 .03649394 .35683189 .034662885 .3700002 .035995485 .3860016 .039332075 .41999818 .051498414 .4474945 .07249451 .4684906 .09350077 .48949687 .1243337 .5 .16499329 .5 .19766744 .5 .22350057 .49516297 .24249268 .4854889 .26149497 .47582499 .2754313 .46299235 .28430177 .44699098 .2931722 .43099977 .29891969 .41333518 .3015442 .3939972 .3041687 .3746694 .30548097 .35533653 .30548097 .33599855V.0039978029M.1647644 .0039978029C.18815105 .0039978029 .20969646 .006164551 .22940064 .010498047 .24911499 .014831543 .26331584 .023000082 .27200318 .035003663V.30299378C.26397706 .29233299 .2497762 .28583274 .22940064 .28349305 .20903524 .28116355 .18748982 .27999879 .1647644 .27999879 .14272054 .27999879 .12251282 .27599589 .104141239 .2679901 .08576965 .2599945 .071909587 .2426656 .062561038 .21600342 .0552063 .19533284 .05152893 .17133077 .05152893 .14399719 .05152893 .11666361 .0552063 .092666629 .062561038 .072006229 .071909587 .045333864 .08576965 .027328492 .104141239 .017990113 .12251282 .008661906 .14272054 .0039978029 .1647644 .0039978029Z"/>
<path id="font_4_241" d="M.18962097 .5C.2354482 .5 .27065025 .4869995 .29522706 .46099855 .31981407 .43499757 .33077494 .40333048 .32810975 .3659973 .32810975 .35132853 .32503257 .34032694 .31887818 .33299256 .31273399 .32566834 .30556236 .32333885 .29736329 .32600404 .29052735 .32799784 .28710938 .3328298 .28710938 .34049989 .28710938 .34816996 .28877769 .3566691 .29211427 .3659973 .29877726 .3846639 .29977418 .4039968 .29510499 .42399598 .2904358 .44399516 .27959696 .46099345 .2625885 .47499085 .24558003 .4889984 .22140503 .4960022 .19006348 .4960022 .16872151 .4960022 .15004476 .4896647 .1340332 .47698976 .118021648 .46432496 .10550944 .44799296 .09649658 .42799378 .0874939 .4079946 .08299255 .3873291 .08299255 .3659973V.0039978029H.11199951V0H.019836426V.0039978029H.048828126V.4960022H.019836426V.5H.08299255V.43699647C.09627787 .45566307 .11205546 .4708303 .13032532 .48249818 .14859517 .49416606 .1683604 .5 .18962097 .5Z"/>
<path id="font_4_158" d="M.31373597 .16499329C.30773417 .11833191 .2927246 .07916769 .26870729 .04750061 .24468994 .015833537 .21200054 0 .17063904 0 .13195293 0 .10059611 .013666789 .0765686 .041000368 .05255127 .068333949 .03687032 .10133362 .029525757 .13999939 .026189169 .15800476 .023686728 .1758372 .022018433 .1934967 .020360312 .21116638 .01953125 .22899883 .01953125 .24699402 .01953125 .266332 .020360312 .28533427 .022018433 .30400086 .023676554 .32266746 .026168824 .34133403 .02949524 .3600006 .036809286 .39866639 .0524292 .43166606 .07635498 .45899964 .10029093 .48633323 .13153076 .5 .17007447 .5 .20862834 .5 .2397105 .48633323 .26332093 .45899964 .28693138 .43166606 .30206809 .39866639 .30873109 .3600006 .3100637 .35666404 .31089784 .35299684 .31123353 .34899903 .3115692 .34500123 .31206767 .34100343 .31272889 .33700563 .31340028 .32833863 .31106568 .32250468 .3057251 .31950379 .30039469 .3165029 .2950643 .3165029 .2897339 .31950379 .28440348 .32250468 .28173829 .32833863 .28173829 .33700563 .28173829 .3543396 .28006999 .37200419 .2767334 .3899994 .27207438 .42200218 .2600759 .44766746 .24073792 .46699525 .22141011 .48633323 .19807942 .4960022 .17074585 .4960022 .14407349 .4960022 .12073771 .48633323 .100738529 .46699525 .08073934 .44766746 .06840515 .42200218 .06373596 .3899994 .060409547 .3660024 .05791219 .34216819 .056243898 .3184967 .054575605 .29483543 .053741456 .2710012 .053741456 .24699402 .053741456 .22432964 .054575605 .20166524 .056243898 .17900086 .05791219 .15633647 .060409547 .13333638 .06373596 .11000061 .06907654 .07799784 .081578578 .052327474 .101242069 .032989503 .120905559 .013661702 .14407349 .0039978029 .17074585 .0039978029 .19740804 .0039978029 .22007244 .011998494 .23873902 .027999878 .2574056 .044001264 .27257286 .0641683 .28424073 .08850098 .2959086 .11283366 .30341087 .1383311 .30674745 .16499329H.31373597Z"/>
<path id="font_4_188" d="M.35888673 .0039978029V0H.26690675V.0039978029H.29589845V.3899994C.29589845 .41133119 .29040019 .42999778 .2794037 .44599916 .2684072 .46200053 .25474549 .47433473 .23841858 .4830017 .22210185 .4916687 .2059428 .4960022 .1899414 .4960022 .16862996 .4960022 .14997356 .49216715 .13397217 .48449708 .11798096 .47683717 .10548401 .46767173 .09648132 .45700074 .08748881 .44632975 .08299255 .43666078 .08299255 .42799378V.0039978029H.11199951V0H.019836426V.0039978029H.048828126V.69599917H.019836426V.69999697H.08299255V.45199586C.10965475 .48399864 .14530945 .5 .18995667 .5 .21594747 .5 .23926799 .4936676 .2599182 .4810028 .2805786 .468338 .2972361 .45150248 .30989076 .43049623 .32255555 .40950013 .32888795 .3860016 .32888795 .3600006V.0039978029H.35888673Z"/>
<path id="font_4_191" d="M.06404114 .5214844C.057378133 .5214844 .051712037 .52381899 .047042848 .52848818 .042373659 .53315737 .040039064 .5388234 .040039064 .54548647 .040039064 .5514882 .042373659 .55681869 .047042848 .56147769 .051712037 .56614688 .057378133 .56848147 .06404114 .56848147 .07071432 .56848147 .07638041 .56614688 .08103943 .56147769 .08570862 .55681869 .08804321 .5514882 .08804321 .54548647 .08804321 .5388234 .08570862 .53315737 .08103943 .52848818 .07638041 .52381899 .07071432 .5214844 .06404114 .5214844M.08105469 .004486084H.110061649V.00048828127H.020050049V.004486084H.049057008V.49649049H.020065308V.5004883H.08105469V.004486084Z"/>
<path id="font_4_252" d="M.33999635 .13999939H.34399415C.34399415 .10133362 .33299256 .068333949 .31098939 .041000368 .28899638 .013666789 .258667 0 .22000122 0 .18066406 0 .15027364 .013666789 .12882996 .041000368 .10738627 .068344119 .09700012 .10135905 .09767151 .14004517 .098332729 .19939168 .09866333 .2587382 .09866333 .31808473 .09866333 .37743125 .09866333 .43678285 .09866333 .49613954H.01965332V.5001373H.09765625V.7001953H.13200379V.5001373H.33999635V.49613954H.13200379V.11003113C.13200379 .07801819 .13850403 .05234273 .15150452 .03300476 .164505 .013666789 .18733724 .0039978029 .22000122 .0039978029 .252004 .0039978029 .28000389 .015996298 .30400086 .039993287 .32799784 .06400045 .33999635 .097335819 .33999635 .13999939Z"/>
<path id="font_4_168" d="M.32217408 .26464845H.054992677V.24667359C.054992677 .22403972 .055821737 .20140584 .05747986 .17877198 .05914815 .1561381 .061645509 .13316854 .064971927 .10986328 .07028198 .07790121 .08306885 .052266439 .10333252 .032958986 .12359619 .01365153 .14767964 .0039978029 .17558289 .0039978029 .20348613 .0039978029 .22740174 .01365153 .24732971 .032958986 .2672577 .052266439 .2798818 .07790121 .28520204 .10986328 .28719584 .123179119 .28885398 .1359965 .2901764 .14831543 .291509 .16063436 .2921753 .17311605 .2921753 .1857605 .2921753 .1950887 .29509483 .20125325 .30093385 .20425415 .30677287 .20725505 .31243897 .20725505 .31793214 .20425415 .3234253 .20125325 .32617188 .194753 .32617188 .18475342 .32551066 .1774292 .32451377 .16993714 .32318116 .16227722 .32184855 .15462749 .32051597 .1471405 .31918336 .13981629 .31118775 .10120138 .29520164 .06824239 .27122499 .04093933 .2472585 .013646443 .21529643 0 .17533875 0 .13473003 0 .10226949 .013666789 .07795715 .041000368 .053654989 .068333949 .037506105 .10133362 .029510498 .13999939 .026184082 .15800476 .023686728 .1758372 .022018433 .1934967 .020360312 .21116638 .01953125 .22899883 .01953125 .24699402 .01953125 .266332 .020360312 .28533427 .022018433 .30400086 .023686728 .32266746 .026184082 .34133403 .029510498 .3600006 .036834718 .39866639 .052815755 .43166606 .07745361 .45899964 .10210165 .48633323 .13473003 .5 .17533875 .5 .21529643 .5 .24743144 .48631288 .27174378 .4589386 .29605613 .43156434 .3118744 .3985138 .3191986 .359787 .32451884 .33241273 .32784526 .30303446 .32917787 .27165223 .32917787 .26698304 .32684327 .26464845 .32217408 .26464845M.06399536 .38983155C.06133016 .36913047 .05916341 .34876506 .057495119 .32873536 .055826826 .30870567 .054992677 .28867594 .054992677 .26864625H.29518128C.2945099 .29000855 .2935079 .3105367 .2921753 .3302307 .29084269 .3499349 .28850303 .36980186 .28515626 .38983155 .28049723 .42188517 .2679901 .44759117 .24763489 .46694947 .22728984 .48631797 .20310466 .4960022 .17507935 .4960022 .14706421 .4960022 .12287903 .48631797 .1025238 .46694947 .08217875 .44759117 .06933594 .42188517 .06399536 .38983155Z"/>
</defs>
<g clip-path="url(#clip_0)">
<path transform="matrix(.75,0,0,.75,0,0)" d="M0 0H1280V1290H0Z" fill="none"/>
</g>
<g clip-path="url(#clip_1)">
<path transform="matrix(.75,0,0,.75,0,0)" d="M0 0H1280V1280H0Z" fill="none"/>
</g>
<g clip-path="url(#clip_2)">
<g id="layer_1" data-name="P">
</g>
<use data-text="E" xlink:href="#font_3_40" transform="matrix(553.93386,0,0,-553.93386,75.36392,620.7644)" fill="#f1dec2"/>
<use data-text="S" xlink:href="#font_3_54" transform="matrix(553.93386,0,0,-553.93386,351.21089,620.7644)" fill="#f1dec2"/>
<use data-text="T" xlink:href="#font_3_55" transform="matrix(553.93386,0,0,-553.93386,592.1615,620.7644)" fill="#f1dec2"/>
<g id="layer_1" data-name="P">
</g>
<use data-text="a" xlink:href="#font_4_143" transform="matrix(180.58596,0,0,-180.58596,94.062007,838.0679)" fill="#f1dec2"/>
<use data-text="r" xlink:href="#font_4_241" transform="matrix(180.58596,0,0,-180.58596,186.32938,838.0679)" fill="#f1dec2"/>
<use data-text="c" xlink:href="#font_4_158" transform="matrix(180.58596,0,0,-180.58596,277.5136,838.0679)" fill="#f1dec2"/>
<use data-text="h" xlink:href="#font_4_188" transform="matrix(180.58596,0,0,-180.58596,365.98988,838.0679)" fill="#f1dec2"/>
<use data-text="i" xlink:href="#font_4_191" transform="matrix(180.58596,0,0,-180.58596,462.5901,838.0679)" fill="#f1dec2"/>
<use data-text="t" xlink:href="#font_4_252" transform="matrix(180.58596,0,0,-180.58596,514.23757,838.0679)" fill="#f1dec2"/>
<use data-text="e" xlink:href="#font_4_168" transform="matrix(180.58596,0,0,-180.58596,614.26797,838.0679)" fill="#f1dec2"/>
<use data-text="c" xlink:href="#font_4_158" transform="matrix(180.58596,0,0,-180.58596,705.6327,838.0679)" fill="#f1dec2"/>
<use data-text="t" xlink:href="#font_4_252" transform="matrix(180.58596,0,0,-180.58596,794.10897,838.0679)" fill="#f1dec2"/>
<path transform="matrix(2.3858958,0,0,2.3830453,75.36392,678.7614)" stroke-width="2" stroke-linecap="butt" stroke-miterlimit="4" stroke-linejoin="miter" fill="none" stroke="#f1dec2" d="M0 1H339.5958"/>
</g>
</svg>
